# xmcd
#
# Track frame offsets: 
#        150
#        3975
#        23957
#        37008
#        57239
#        76972
#        96495
#        116025
#        136309
#        149151
#        166428
#        183142
#        201630
#        204711
#        219065
#        221294
#        238469
#        256235
#        273951
#        275430
#        294536
#
# Disc length: 4213 seconds
#
# Revision: 1
# Processed by: cddbd v1.5.2PL0 Copyright (c) Steve Scherf et al.
# Submitted via: ExactAudioCopy v0.99pb5
#
DISCID=49107315
DTITLE=Various Artist - Nessuna Via Di Uscita Mixtape
DYEAR=2006
DGENRE=Rap
TTITLE0=Mondo Marcio - Intro (Skit)
TTITLE1=Mondo Marcio - Ultima Corsa
TTITLE2=Mondo Marcio - Lo Devi Amare
TTITLE3=Mondo Marcio and Primo - Le Strade Guardano
TTITLE4=Mondo Marcio - Non Piangere
TTITLE5=Mondo Marcio - Perchè Deve Andare Così?!
TTITLE6=Mondo Marcio - The One
TTITLE7=Mondo Marcio - La Città
TTITLE8=Mondo Marcio - L.A. Strippers
TTITLE9=Mondo Marcio, Lou Reigns and Spoon - Breathe Easy
TTITLE10=Mondo Marcio - Nero O Bianco
TTITLE11=Mondo Marcio - Non Moriremo Mai
TTITLE12=Jemal - Jemal's War
TTITLE13=Mondo Marcio - I Marci Mi Cercano
TTITLE14=Mondo Marcio - Skit (Skit)
TTITLE15=Mondo Marcio - Una Nel Mondo
TTITLE16=Mondo Marcio - Il Motivo
TTITLE17=Mondo Marcio - Sono Un Sognatore
TTITLE18=Mondo Marcio - Skit (Skit)
TTITLE19=Mondo Marcio - Candy
TTITLE20=Mondo Marcio - If I Die 2Nite (Bonus Track)
EXTD=
EXTT0=
EXTT1=
EXTT2=
EXTT3=
EXTT4=
EXTT5=
EXTT6=
EXTT7=
EXTT8=
EXTT9=
EXTT10=
EXTT11=
EXTT12=
EXTT13=
EXTT14=
EXTT15=
EXTT16=
EXTT17=
EXTT18=
EXTT19=
EXTT20=
PLAYORDER=
